# xmcd
#
# Track frame offsets:
#	150
#	10925
#	22287
#	33457
#	47944
#	64878
#	75226
#	89986
#	110879
#	124929
#	142071
#	157575
#	171270
#	186458
#	208219
#
# Disc length: 2927 seconds
#
# Revision: 1
# Processed by: cddbd v1.5.2PL0 Copyright (c) Steve Scherf et al.
# Submitted via: audiograbber 1.83.01
#
DISCID=e20b6d0f
DTITLE=Strictly Bluegrass - Gone at least
DYEAR=1900
DGENRE=
TTITLE0=Uncle Pen (Bill Monroe)
TTITLE1=Big Scioty (Traditional)
TTITLE2=Fox on the run (Tony Hazzard)
TTITLE3=Gone At Last (Paul Simon)
TTITLE4=Red Haired Boy -Cckoos Nest (Traditional)
TTITLE5=Wicked Path of Sin (Bill Monroe)
TTITLE6=Colleen Malone (Tim OBrian)
TTITLE7=Broken Dreams (Buck White)
TTITLE8=Withe Freightliner (Townes Van Zandt)
TTITLE9=Wayfaring Stranger (Traditional)
TTITLE10=The Way I am (Sonny Trockmorton)
TTITLE11=Cherokee Shuffle (traditional)
TTITLE12=Hiclory Wind (Gram Parsons)
TTITLE13=Dougs Tune - Dueling Banjos (Doug Dillard A Smith)
TTITLE14=Rock of Ages (traditional)
EXTD=
EXTT0=
EXTT1=
EXTT2=
EXTT3=
EXTT4=
EXTT5=
EXTT6=
EXTT7=
EXTT8=
EXTT9=
EXTT10=
EXTT11=
EXTT12=
EXTT13=
EXTT14=
PLAYORDER=
